<svg version="1" xmlns="http://www.w3.org/2000/svg" viewBox="0 0 396.000000 157.000000"><g fill="#444"><path d="M313.5 6.6c-1.6.2-7.3.9-12.5 1.5-36.8 4.1-104.3 20.7-181.2 44.6-13.6 4.2-24.6 7.9-24.4 8.1.4.3 10.3-2.2 67.6-17.3C270.7 15.1 310.5 7.1 338.4 8.2c7.2.3 10.1.2 8.1-.4-3.3-1-28.2-1.9-33-1.2zM390.1 24.4c-.7 13.9-34.2 30-82.1 39.6-18.5 3.7-31.4 5.6-52 7.5-20.1 1.9-27.4 3.5-41 9-10.3 4.2-50.2 23-93.5 43.9-26.9 13.1-36.1 16.6-58 22.2-9.3 2.3-16.5 4.3-15.9 4.3 4.5.3 33.6-6.6 45.4-10.6 4.1-1.4 32.5-14.1 63-28.3 30.5-14.1 58.6-26.9 62.3-28.4 9.2-3.7 19.7-6.2 28.7-7 56.6-5.1 103.6-17.2 127.8-32.9 11.1-7.2 16.7-14.1 15.9-19.5l-.4-2.7-.2 2.9zM37.2 45.6c-7.2 1.9-18.7 6.8-24.7 10.5-2.7 1.7-4.1 2.8-3 2.4 1.1-.4 6.8-2.4 12.7-4.5 13.9-5.1 24-7.1 29.6-6.1 2.5.5 7.7 3.1 12.5 6.3 4.5 3 9.3 6 10.7 6.7l2.5 1.2-2.6-2.3C59.4 46.2 55.6 44 47.5 44.1c-2.7 0-7.4.7-10.3 1.5zM28.6 76c18.6 26.7 24.9 30.2 48.9 26.6 10.7-1.6 44-8.3 42-8.5-.5-.1-12.5 1.3-26.5 3-27 3.2-34.3 3.3-40.6.3-4-1.9-12.9-10.2-22.3-20.9l-5.4-6 3.9 5.5z"/></g></svg>